<?xml version="1.0" standalone="no"?><!DOCTYPE svg PUBLIC "-//W3C//DTD SVG 1.1//EN" "http://www.w3.org/Graphics/SVG/1.1/DTD/svg11.dtd"><svg t="1694406568273" class="icon" viewBox="0 0 1024 1024" version="1.1" xmlns="http://www.w3.org/2000/svg" p-id="8331" xmlns:xlink="http://www.w3.org/1999/xlink" width="16" height="16"><path d="M510.423597 63.614853c-246.633167 0-447.264627 200.639646-447.264627 447.264627 0 246.62498 200.63146 447.263603 447.264627 447.263603 246.616794 0 447.264627-200.638623 447.264627-447.263603C957.688223 264.254499 757.040391 63.614853 510.423597 63.614853zM495.59589 303.453267c0-8.345062 6.680143-15.114233 14.927991-15.114233 8.243755 0 14.950504 6.768147 14.950504 15.114233l0 177.795359c0 8.345062-6.707772 15.114233-14.950504 15.114233-8.247848 0-14.927991-6.769171-14.927991-15.114233L495.59589 303.453267zM510.423597 733.418902c-105.186667 0-190.747345-86.531795-190.747345-192.909591 0-80.683601 50.469462-153.467277 125.573997-181.124174 7.724938-2.831488 16.318664 1.192152 19.150152 9.04091 0.595564 1.676176 0.743944 3.402493 0.77055 5.104251 0.025583 6.183839-3.62762 12.021801-9.710153 14.255679C392.124284 411.109172 349.554746 472.480938 349.554746 540.509311c0 89.698928 72.15025 162.684196 160.868851 162.684196 88.693018 0 160.842245-72.984245 160.842245-162.684196 0-68.62496-43.041282-130.181945-107.120716-153.182798-6.110161-2.185782-9.785877-7.984858-9.810437-14.180977-0.025583-1.688455 0.122797-3.414773 0.721431-5.116531 2.756787-7.860015 11.322883-11.996219 19.073404-9.190313 75.976392 27.284413 127.041418 100.292194 127.041418 181.670619C701.170942 646.88813 615.608218 733.418902 510.423597 733.418902z" fill="#AD5757" p-id="8332"></path></svg>