<?xml version="1.0" standalone="no"?><!DOCTYPE svg PUBLIC "-//W3C//DTD SVG 1.1//EN" "http://www.w3.org/Graphics/SVG/1.1/DTD/svg11.dtd"><svg t="1694406660666" class="icon" viewBox="0 0 1024 1024" version="1.1" xmlns="http://www.w3.org/2000/svg" p-id="9732" xmlns:xlink="http://www.w3.org/1999/xlink" width="16" height="16"><path d="M952 512v0z" fill="#FFEB3B" p-id="9733"></path><path d="M504 512c0-123.7 100.3-224 224-224H296C172.5 288 72 388.5 72 512s100.5 224 224 224h432c-123.7 0-224-100.3-224-224z" fill="#FF5722" p-id="9734"></path><path d="M937.3 302.7C881.4 246.8 807.1 216 728 216H296c-79.1 0-153.4 30.8-209.3 86.7S0 432.9 0 512s30.8 153.4 86.7 209.3S216.9 808 296 808h432c79.1 0 153.4-30.8 209.3-86.7S1024 591.1 1024 512s-30.8-153.4-86.7-209.3zM728 736H296C172.5 736 72 635.5 72 512s100.5-224 224-224h432c123.7 0 224 100.3 224 224v0.2C951.9 635.8 851.7 736 728 736z" fill="#FF9800" p-id="9735"></path><path d="M728 288c-123.7 0-224 100.3-224 224s100.3 224 224 224c123.5 0 223.9-100.4 224-223.8v-0.2c0-123.5-100.5-224-224-224z" fill="#F9CE1D" p-id="9736"></path><path d="M952 512c0-123.7-100.3-224-224-224 123.5 0 224 100.5 224 224zM728 736c123.7 0 223.9-100.2 224-223.8C951.9 635.6 851.5 736 728 736z" fill="#FF5722" p-id="9737"></path></svg>