<?xml version="1.0" standalone="no"?><!DOCTYPE svg PUBLIC "-//W3C//DTD SVG 1.1//EN" "http://www.w3.org/Graphics/SVG/1.1/DTD/svg11.dtd"><svg t="1694406678076" class="icon" viewBox="0 0 1024 1024" version="1.1" xmlns="http://www.w3.org/2000/svg" p-id="9878" xmlns:xlink="http://www.w3.org/1999/xlink" width="16" height="16"><path d="M72 512v0zM520 512c0-123.7-100.3-224-224-224h432c123.5 0 224 100.5 224 224S851.5 736 728 736H296c123.7 0 224-100.3 224-224z" fill="#FFEB3B" p-id="9879"></path><path d="M0 512c0 79.1 30.8 153.4 86.7 209.3S216.9 808 296 808h432c79.1 0 153.4-30.8 209.3-86.7S1024 591.1 1024 512c0-79.1-30.8-153.4-86.7-209.3C881.4 246.8 807.1 216 728 216H296c-79.1 0-153.4 30.8-209.3 86.7S0 432.9 0 512z m72 0.2v-0.2c0-123.7 100.3-224 224-224h432c123.5 0 224 100.5 224 224S851.5 736 728 736H296C172.3 736 72.1 635.8 72 512.2z" fill="#FF9800" p-id="9880"></path><path d="M296 288c123.7 0 224 100.3 224 224S419.7 736 296 736C172.5 736 72.1 635.6 72 512.2v-0.2c0-123.5 100.5-224 224-224z" fill="#F9CE1D" p-id="9881"></path><path d="M72 512c0-123.7 100.3-224 224-224-123.5 0-224 100.5-224 224zM296 736C172.3 736 72.1 635.8 72 512.2 72.1 635.6 172.5 736 296 736z" fill="#FF5722" p-id="9882"></path></svg>